<?xml version="1.0" standalone="no"?>
<!DOCTYPE svg PUBLIC "-//W3C//DTD SVG 20010904//EN"
 "http://www.w3.org/TR/2001/REC-SVG-20010904/DTD/svg10.dtd">
<svg version="1.0" xmlns="http://www.w3.org/2000/svg"
 width="200.000000pt" height="200.000000pt" viewBox="0 0 200.000000 200.000000"
 preserveAspectRatio="xMidYMid meet">
<metadata>
Created by potrace 1.14, written by Peter Selinger 2001-2017
</metadata>
<g transform="translate(0.000000,200.000000) scale(0.100000,-0.100000)"
fill="#000000" stroke="none">
<path d="M938 1965 c-2 -1 -28 -5 -58 -8 -199 -21 -402 -119 -548 -264 -82
-83 -96 -100 -149 -184 -37 -60 -108 -209 -98 -209 2 0 -2 -15 -10 -33 -12
-29 -20 -65 -31 -147 -6 -45 -6 -194 0 -245 26 -199 131 -408 279 -555 251
-249 608 -342 942 -245 87 26 217 82 223 97 2 4 8 8 13 8 9 0 37 18 93 60 91
68 215 219 272 332 81 160 115 376 90 568 -29 230 -156 454 -345 610 -121 100
-299 180 -456 205 -41 7 -212 14 -217 10z"/>
</g>
</svg>
